# xmcd CD database file
#
# Track frame offsets:
#	150
#	20410
#	36058
#	53158
#	68513
#	83470
#	104978
#	119320
#
# Disc length: 1830 seconds
#
# Revision: 0
# Processed by: cddbd v1.5.1PL0 Copyright (c) Steve Scherf et al.
# Submitted via: NeoAudio 9.9.9
#
DISCID=5f072408
DTITLE=Sophy - Brillantes
DYEAR=1994
DGENRE=Salsa
TTITLE0=Se Ve Y Se Va
TTITLE1=Lo Mejor De Mi
TTITLE2=Con Razon O Sin Razon
TTITLE3=Mal Momento
TTITLE4=A Ti No Te Ha Dicho
TTITLE5=A Usted Que Esta Casada
TTITLE6=Tienes Le Mente Loca
TTITLE7=Vienes Y Vas
EXTD=YEAR: 1994
EXTT0=
EXTT1=
EXTT2=
EXTT3=
EXTT4=
EXTT5=
EXTT6=
EXTT7=
PLAYORDER=
